<svg width="481" height="468" viewBox="0 0 481 468" fill="none" xmlns="http://www.w3.org/2000/svg">
<path d="M172.297 52.2305H320.622C350.612 52.2305 378.627 67.0292 395.588 91.7616L463.54 192.097C469.15 200.255 464.075 211.372 454.183 211.372H378.553L348.342 171.804C344.78 166.791 336.918 168.993 336.42 175.153L330.33 249.683H168.569L154.949 173.913C154.119 167.994 146.478 166.181 143.027 171.064L115.271 206.877H24.8213L95.3942 94.7769C112.078 68.2686 141.108 52.2305 172.297 52.2305Z" fill="white"/>
<path d="M330.828 250.2H168.09L168.016 249.738L154.377 173.931C154.027 171.434 152.292 169.51 149.837 168.918C147.364 168.326 144.928 169.251 143.452 171.323L143.433 171.341L115.511 207.376H23.7878L94.896 94.4246C103.146 81.3462 114.625 70.4876 128.116 63.0327C141.606 55.5778 156.887 51.6191 172.279 51.6191H320.604C350.741 51.6191 378.941 66.4919 396.012 91.3908L463.965 191.726C466.807 195.87 467.176 201.124 464.906 205.434C462.783 209.466 458.76 211.871 454.146 211.871H378.277L347.881 172.063C346.091 169.528 343.341 169.214 341.385 169.75C339.41 170.305 337.214 171.989 336.955 175.115L330.828 250.2ZM169.012 249.09H329.795L335.848 175.078C336.088 172.026 338.155 169.547 341.089 168.733C344.042 167.919 346.995 168.955 348.785 171.452L378.83 210.798H454.202C458.409 210.798 462.064 208.616 463.983 204.953C466.05 201.013 465.718 196.203 463.097 192.392L395.145 92.0568C378.277 67.4538 350.428 52.766 320.641 52.766H172.316C157.109 52.766 142.012 56.6692 128.688 64.0316C115.363 71.4125 104.013 82.1231 95.8557 95.035L25.8179 206.266H114.975L142.548 170.675C144.282 168.215 147.161 167.123 150.096 167.845C152.993 168.548 155.06 170.823 155.466 173.764L169.012 249.09Z" fill="#3FB1B5"/>
<path d="M262.673 90.9277L286.702 170.952H227.313L253.685 90.9277H262.673Z" fill="#FE5244"/>
<g opacity="0.2">
<g opacity="0.2">
<g opacity="0.2">
<path opacity="0.2" d="M243.516 121.857V170.952H241.91V126.667L242.445 125.039L243.516 121.857Z" fill="white"/>
</g>
<g opacity="0.2">
<path opacity="0.2" d="M260.421 91.1113H258.833V170.951H260.421V91.1113Z" fill="white"/>
</g>
<g opacity="0.2">
<path opacity="0.2" d="M277.345 139.799V170.951H275.758V134.49L277.345 139.799Z" fill="white"/>
</g>
</g>
<g opacity="0.2">
<g opacity="0.2">
<path opacity="0.2" d="M283.601 160.591H230.708L231.243 158.963H283.102L283.601 160.591Z" fill="white"/>
</g>
<g opacity="0.2">
<path opacity="0.2" d="M278.488 143.63H236.318L236.853 142.002H277.99L278.488 143.63Z" fill="white"/>
</g>
<g opacity="0.2">
<path opacity="0.2" d="M273.413 126.665H241.91L242.445 125.037H272.915L273.413 126.665Z" fill="white"/>
</g>
<g opacity="0.2">
<path opacity="0.2" d="M268.302 109.702H247.521L248.056 108.074H267.822L268.302 109.702Z" fill="white"/>
</g>
<g opacity="0.2">
<path opacity="0.2" d="M263.189 92.7392H253.131L253.648 91.1113H262.746L263.189 92.7392Z" fill="white"/>
</g>
</g>
</g>
<path d="M273.413 90.0968L283.102 100.53L314.347 52.2305H286.664L273.413 90.0968Z" fill="white"/>
<path d="M283.195 101.417L272.786 90.207L286.277 51.6562H315.363L283.195 101.417ZM274.041 89.9665L283.029 99.6412L313.314 52.7847H287.052L274.041 89.9665Z" fill="#3FB1B5"/>
<path d="M244.678 90.0968L234.952 100.53L201.105 52.2305H231.39L244.678 90.0968Z" fill="white"/>
<path d="M234.897 101.399L200.053 51.6562H231.796L245.324 90.207L234.897 101.399ZM202.176 52.7847L235.008 99.6597L244.051 89.9665L231.003 52.7847H202.176Z" fill="#3FB1B5"/>
<path d="M475.425 220.545C475.425 239.45 461.99 257.357 441.08 260.428L355.411 273.062L336.605 275.837V202.823L342.4 201.454L425.984 181.569C442.114 177.739 458.926 184.232 468.302 197.921C473.192 204.988 475.425 212.85 475.425 220.545Z" fill="#A0505A"/>
<path d="M355.411 273.063L336.605 275.837V202.824L342.4 201.455L355.411 273.063Z" fill="#73325A"/>
<path d="M336.605 294.504H156.518V186.177C156.518 177.761 163.328 170.953 171.707 170.953H321.398C329.795 170.953 336.586 177.779 336.586 186.177V294.504H336.605Z" fill="#FFCF2D"/>
<path d="M257.671 241.837H235.451C232.941 241.837 230.893 239.784 230.893 237.268V227.927C230.893 225.411 232.941 223.357 235.451 223.357H257.671C260.181 223.357 262.23 225.411 262.23 227.927V237.268C262.211 239.802 260.181 241.837 257.671 241.837ZM235.451 224.319C233.458 224.319 231.815 225.947 231.815 227.964V237.305C231.815 239.303 233.439 240.949 235.451 240.949H257.671C259.665 240.949 261.307 239.322 261.307 237.305V227.964C261.307 225.966 259.683 224.319 257.671 224.319H235.451Z" fill="white"/>
<path d="M219.765 293.32L410.408 264.74C447.503 259.079 480.944 287.881 480.944 325.525C480.944 359.489 453.501 386.996 419.617 386.996H221.02L219.765 293.32Z" fill="#0096A0"/>
<path d="M194.001 403.754L79.2645 425.953C64.648 429.06 49.9576 416.851 49.3116 401.054L47.6137 359.081C46.7463 337.826 67.0656 325.043 86.2222 334.145L194.001 403.754Z" fill="white"/>
<path d="M74.6507 426.988C69.2987 426.988 63.9098 425.12 59.3698 421.568C52.9473 416.574 49.0717 409.1 48.758 401.072L47.0601 359.099C46.8571 353.938 47.8352 349.147 49.9945 344.874C52.0061 340.878 55.0512 337.456 58.7607 334.996C66.7519 329.705 77.1053 329.206 86.4621 333.645L86.5175 333.682L195.459 404.032L79.3568 426.489C77.8066 426.822 76.2379 426.988 74.6507 426.988ZM73.4327 331.758C68.4128 331.758 63.5407 333.164 59.3513 335.939C51.84 340.934 47.7429 349.35 48.1489 359.081L49.8468 401.054C50.1606 408.749 53.8701 415.908 60.0342 420.717C65.663 425.102 72.6207 426.822 79.1169 425.435L192.525 403.495L85.9454 334.644C81.8668 332.702 77.6036 331.758 73.4327 331.758Z" fill="#FE5244"/>
<path d="M82.6604 425.435C77.4561 425.435 72.2148 423.604 67.7855 420.163C61.5107 415.279 57.7274 408.01 57.3768 400.166L55.6051 359.414C55.1806 349.591 59.2592 341.082 66.8443 336.051C74.5401 330.945 84.5798 330.482 93.6598 334.83L93.1799 335.828C84.4506 331.648 74.8354 332.073 67.4533 336.975C60.2189 341.785 56.3064 349.943 56.7124 359.359L58.4841 400.111C58.8163 407.621 62.452 414.595 68.4684 419.275C73.9127 423.511 80.6304 425.195 86.9052 423.881L87.1266 424.973C85.6502 425.287 84.1553 425.435 82.6604 425.435Z" fill="#FE5244"/>
<path d="M86.2039 334.125L194.001 403.753L169.419 408.489L86.2039 334.125Z" fill="#FE5244"/>
<path d="M83.768 397.301L82.7529 396.857L98.9936 359.435C99.0859 359.231 99.2889 359.102 99.5103 359.102C99.7318 359.102 99.9348 359.231 100.009 359.435L113.592 391.64L127.249 364.374L128.245 364.873L114.053 393.213C113.961 393.398 113.758 393.527 113.536 393.527C113.315 393.527 113.13 393.379 113.038 393.194L99.4919 361.062L83.768 397.301Z" fill="#FE5244"/>
<path d="M98.3661 394.784H98.3476C98.1262 394.784 97.9416 394.636 97.8494 394.433L81.9409 354.661L82.9744 354.254L98.403 392.86L113.407 362.227C113.499 362.042 113.702 361.912 113.905 361.912C114.127 361.912 114.311 362.042 114.404 362.245L126.474 388.735L125.458 389.198L113.869 363.781L98.8275 394.488C98.7721 394.655 98.5691 394.784 98.3661 394.784Z" fill="#FE5244"/>
<path d="M283.103 351.719C276.736 346.484 258.336 358.397 241.984 378.32C225.633 398.243 217.531 418.665 223.88 423.9C222.938 423.327 103.422 348.205 29.2506 296.927C10.3893 283.904 0.441895 263.038 0.441895 241.913C0.441895 227.188 5.29565 212.352 15.3169 199.94C40.4529 168.862 87.0155 166.772 114.846 195.463L283.103 351.719Z" fill="#3FB1B5"/>
<path d="M264.934 397.281C281.282 377.358 289.378 356.957 283.018 351.714C276.657 346.47 258.249 358.37 241.901 378.292C225.553 398.215 217.457 418.616 223.817 423.859C230.178 429.103 248.586 417.203 264.934 397.281Z" fill="#FE5244"/>
<path d="M227.754 425.64C226.038 425.64 224.599 425.196 223.491 424.29C220.206 421.589 220.335 415.226 223.86 406.383C227.293 397.726 233.568 387.626 241.504 377.951C249.439 368.277 258.132 360.156 265.938 355.106C273.929 349.945 280.13 348.594 283.397 351.295C286.682 353.996 286.553 360.359 283.028 369.201C279.595 377.859 273.32 387.959 265.385 397.634C257.449 407.308 248.756 415.429 240.95 420.479C235.672 423.901 231.15 425.64 227.754 425.64ZM279.152 351.036C275.996 351.036 271.641 352.738 266.547 356.031C258.833 361.025 250.233 369.053 242.371 378.636C234.491 388.236 228.29 398.225 224.894 406.772C221.627 415.022 221.369 421.09 224.211 423.42C227.053 425.751 232.94 424.345 240.378 419.536C248.092 414.541 256.692 406.513 264.554 396.931C272.435 387.33 278.636 377.341 282.031 368.795C285.298 360.544 285.556 354.477 282.714 352.146C281.81 351.406 280.61 351.036 279.152 351.036Z" fill="white"/>
<path d="M335.738 417.296L314.459 453.498C303.663 471.83 279.283 472.163 268.118 454.108L232.296 396.282C235.36 391.195 239.143 385.886 243.498 380.577C251.379 370.976 259.739 363.244 267.01 358.379L324.019 380.115C337.971 385.461 343.71 403.682 335.738 417.296Z" fill="white"/>
<path d="M291.076 468.001C286.61 468.001 282.18 466.854 278.25 464.671C273.968 462.303 270.388 458.844 267.638 454.386L231.65 396.264L231.834 395.968C234.935 390.825 238.718 385.516 243.092 380.188C250.714 370.884 259.111 362.966 266.715 357.879L266.955 357.713L267.213 357.805L324.222 379.541C330.736 382.038 335.885 387.532 338.358 394.58C341.034 402.257 340.259 410.618 336.199 417.537L314.92 453.738C312.244 458.27 308.738 461.841 304.475 464.319C300.47 466.65 295.948 467.908 291.353 467.964C291.279 468.001 291.187 468.001 291.076 468.001ZM232.96 396.264L268.597 453.812C271.236 458.104 274.669 461.415 278.803 463.709C282.66 465.836 286.997 466.946 291.371 466.891C295.764 466.835 300.101 465.633 303.939 463.394C308.036 461.008 311.414 457.567 313.997 453.202L335.276 417C339.152 410.378 339.909 402.35 337.343 394.987C334.981 388.235 330.072 383 323.853 380.614L267.103 358.971C259.647 364.002 251.434 371.772 243.96 380.891C239.678 386.108 235.987 391.269 232.96 396.264Z" fill="#FE5244"/>
<path d="M286.241 461.766C282.033 461.766 277.862 460.675 274.134 458.585C270.074 456.309 266.697 452.98 264.094 448.707L265.036 448.133C267.546 452.24 270.794 455.421 274.669 457.604C278.305 459.639 282.402 460.694 286.518 460.638C290.652 460.583 294.73 459.417 298.329 457.29C302.186 454.996 305.36 451.703 307.76 447.523L327.821 412.801C331.604 406.234 332.397 398.15 329.943 391.176C327.784 385.053 323.484 380.484 317.799 378.264L318.205 377.229C324.185 379.559 328.725 384.369 330.976 390.806C333.542 398.076 332.711 406.512 328.78 413.356L308.719 448.078C306.209 452.425 302.906 455.847 298.883 458.233C295.118 460.472 290.855 461.692 286.536 461.748C286.444 461.748 286.333 461.766 286.241 461.766Z" fill="#FE5244"/>
<path d="M268.339 417.166C268.228 417.166 268.117 417.129 268.007 417.055C267.822 416.925 267.748 416.685 267.804 416.481L276.219 382.629L248.296 396.799L247.798 395.8L276.791 381.075C276.976 380.983 277.216 381.001 277.382 381.131C277.548 381.26 277.622 381.482 277.567 381.704L269.188 415.408L302.703 394.801L303.275 395.745L268.597 417.073C268.542 417.147 268.45 417.166 268.339 417.166Z" fill="#FE5244"/>
<path d="M279.892 430.781L278.803 430.54L287.569 390.88L259.037 404.975C258.853 405.068 258.631 405.049 258.465 404.92C258.299 404.79 258.207 404.587 258.244 404.383L262.784 377.283L263.873 377.468L259.517 403.495L288.123 389.363C288.307 389.27 288.547 389.289 288.713 389.418C288.879 389.548 288.953 389.77 288.916 389.973L279.892 430.781Z" fill="#FE5244"/>
<path d="M301.964 58.7768C301.816 61.2 300.746 63.3644 299.085 64.9182C297.424 66.4721 295.227 67.4155 292.791 67.4155H284.431L283.896 76.2578C283.435 83.5461 276.219 90.9825 268.67 90.9825H247.502C240.009 90.9825 232.738 83.5461 232.277 76.2578L231.741 67.4155H223.271C220.853 67.4155 218.62 66.4721 216.977 64.9182C215.316 63.3644 214.246 61.2 214.098 58.7398C213.803 53.4307 218.14 49.0281 223.455 49.0281H230.616L229.822 35.5612C229.674 32.7125 231.908 30.3262 234.75 30.3262H281.46C284.302 30.3262 286.535 32.7125 286.387 35.5612L285.594 49.0281H292.828C298.07 49.0651 302.259 53.5047 301.964 58.7768Z" fill="#A0505A"/>
<path d="M285.576 49.0289H293.179C293.179 49.0289 300.451 22.5761 293.438 15.7872C286.443 8.99826 243.424 -6.63292 229.527 3.11576C219.377 10.2562 224.913 49.0289 224.913 49.0289H230.524C230.524 49.0289 253.132 32.7873 256.675 34.1931C260.237 35.599 246.451 42.4249 249.219 43.7568C259.554 48.7329 278.138 30.6969 282.42 30.6969C286.702 30.6969 285.576 49.0289 285.576 49.0289Z" fill="#73325A"/>
<path d="M275.998 55.9648C275.924 55.9648 275.832 55.9463 275.758 55.8908C275.703 55.8538 270.886 52.0431 264.814 54.5404C264.629 54.6144 264.408 54.5219 264.334 54.3369C264.26 54.152 264.353 53.93 264.537 53.856C271.033 51.1922 276.182 55.2804 276.238 55.3174C276.404 55.4468 276.422 55.6873 276.293 55.8353C276.201 55.9278 276.09 55.9648 275.998 55.9648Z" fill="#73325A"/>
<path d="M275.998 56.3363C275.832 56.3363 275.666 56.2808 275.536 56.1698C275.499 56.1328 270.812 52.4702 264.962 54.8749C264.592 55.0229 264.15 54.8565 264.002 54.468C263.854 54.098 264.02 53.6541 264.408 53.5061C271.107 50.7498 276.422 54.9674 276.478 55.0229C276.625 55.1524 276.718 55.3189 276.754 55.5224C276.773 55.7259 276.718 55.9109 276.588 56.0588C276.422 56.2438 276.219 56.3363 275.998 56.3363ZM275.961 55.5779C275.979 55.5964 275.998 55.5964 275.998 55.5964C275.998 55.5964 275.979 55.5964 275.961 55.5779Z" fill="#73325A"/>
<path d="M259.259 81.2709C257.967 81.2709 256.472 81.0119 254.737 80.3829C254.553 80.309 254.442 80.1055 254.516 79.902C254.59 79.717 254.793 79.606 254.996 79.68C258.262 80.8824 261.123 80.8084 263.264 79.4395C264.869 78.4221 265.515 77.0717 265.515 77.0532C265.608 76.8682 265.829 76.7942 266.014 76.8682C266.198 76.9607 266.272 77.1827 266.198 77.3677C266.161 77.4232 264.297 81.2709 259.259 81.2709Z" fill="#73325A"/>
<path d="M259.259 81.6408C257.82 81.6408 256.251 81.3264 254.608 80.7344C254.424 80.6604 254.276 80.5309 254.184 80.3459C254.11 80.161 254.092 79.9575 254.165 79.7725C254.239 79.5875 254.368 79.4395 254.553 79.347C254.738 79.273 254.94 79.2545 255.125 79.3285C258.281 80.4939 261.012 80.4199 263.061 79.1251C264.556 78.1816 265.183 76.9052 265.183 76.8867C265.257 76.7018 265.423 76.5723 265.608 76.4983C265.792 76.4243 265.995 76.4428 266.18 76.5168C266.549 76.6833 266.715 77.1272 266.53 77.4972C266.493 77.5897 264.537 81.6408 259.259 81.6408ZM254.867 80.0315C256.546 80.6419 258.133 80.9379 259.554 80.9009C258.115 80.9379 256.546 80.6604 254.867 80.0315Z" fill="#73325A"/>
<path d="M256.822 76.0717C256.01 76.0717 255.161 76.0532 254.423 75.9977C253.021 75.9052 252.725 72.853 252.356 67.4699C252.116 64.0292 251.839 60.1261 251.009 58.4057C248.148 52.5232 238.459 54.595 238.367 54.6135C238.164 54.6505 237.98 54.5395 237.924 54.336C237.869 54.1326 237.998 53.9476 238.201 53.8921C238.312 53.8736 240.803 53.3186 243.701 53.5406C247.613 53.8366 250.363 55.409 251.673 58.0727C252.559 59.9041 252.836 63.7148 253.094 67.3959C253.242 69.5048 253.39 71.5026 253.63 73.001C253.98 75.1098 254.405 75.2393 254.479 75.2393C256.582 75.3873 259.812 75.2393 259.849 75.2393C260.052 75.2208 260.218 75.3873 260.237 75.5908C260.255 75.7942 260.089 75.9607 259.886 75.9792C259.794 75.9977 258.391 76.0717 256.822 76.0717Z" fill="#73325A"/>
<path d="M256.822 76.4435C255.881 76.4435 255.05 76.425 254.404 76.3695C252.688 76.24 252.393 73.2433 251.987 67.4903C251.747 64.0866 251.47 60.2204 250.677 58.574C247.945 52.969 238.533 54.9669 238.441 54.9853C238.256 55.0223 238.053 54.9853 237.887 54.8929C237.721 54.7819 237.61 54.6154 237.555 54.4304C237.499 54.2454 237.555 54.0419 237.647 53.8754C237.758 53.709 237.924 53.598 238.108 53.5425C238.219 53.524 240.766 52.969 243.719 53.191C247.779 53.5055 250.64 55.1333 251.987 57.9266C252.91 59.8319 253.168 63.6796 253.445 67.3978C253.592 69.5066 253.74 71.486 253.98 72.9658C254.22 74.4272 254.478 74.8157 254.552 74.9082C256.619 75.0377 259.775 74.9082 259.812 74.9082C260.015 74.8897 260.199 74.9637 260.347 75.0932C260.495 75.2226 260.587 75.4076 260.587 75.6111C260.605 76.0181 260.292 76.3695 259.886 76.388C259.738 76.388 258.354 76.4435 256.822 76.4435ZM254.441 75.6296C255.106 75.6851 255.899 75.7036 256.822 75.7036C258.335 75.7036 259.683 75.6481 259.867 75.6296C259.72 75.6481 256.545 75.7776 254.441 75.6296ZM251.378 58.3151C252.208 60.1279 252.485 64.0126 252.725 67.4348C252.743 67.6938 252.762 67.9712 252.78 68.2302C252.762 67.9712 252.743 67.6938 252.725 67.4348C252.467 63.8461 252.208 60.1279 251.378 58.3151ZM242.242 53.8939C244.882 53.8939 248.203 54.4119 250.27 56.6687C248.831 55.0963 246.579 54.1529 243.682 53.9309C240.84 53.709 238.385 54.2454 238.293 54.2639C238.33 54.2639 240.028 53.8939 242.242 53.8939Z" fill="#73325A"/>
<path d="M269.206 65.9175C270.184 65.9175 270.978 64.5924 270.978 62.9578C270.978 61.3232 270.184 59.998 269.206 59.998C268.227 59.998 267.434 61.3232 267.434 62.9578C267.434 64.5924 268.227 65.9175 269.206 65.9175Z" fill="#73325A"/>
<path d="M246.192 65.9175C247.171 65.9175 247.964 64.5924 247.964 62.9578C247.964 61.3232 247.171 59.998 246.192 59.998C245.214 59.998 244.42 61.3232 244.42 62.9578C244.42 64.5924 245.214 65.9175 246.192 65.9175Z" fill="#73325A"/>
<path d="M228.789 60.5157C228.605 60.5157 228.439 60.3678 228.42 60.1643C228.199 56.6496 225.283 53.9118 221.776 53.9118C221.573 53.9118 221.407 53.7453 221.407 53.5418C221.407 53.3384 221.573 53.1719 221.776 53.1719C225.67 53.1719 228.918 56.2241 229.14 60.1273C229.158 60.3308 228.992 60.5157 228.789 60.5157Z" fill="#73325A"/>
<path d="M228.789 60.8865C228.402 60.8865 228.069 60.5906 228.051 60.1836C227.848 56.8724 225.098 54.2826 221.776 54.2826C221.37 54.2826 221.038 53.9496 221.038 53.5427C221.038 53.1357 221.37 52.8027 221.776 52.8027C225.873 52.8027 229.269 56.003 229.509 60.0911C229.527 60.2946 229.454 60.4796 229.324 60.6276C229.195 60.7756 229.011 60.868 228.808 60.868C228.808 60.8865 228.808 60.8865 228.789 60.8865ZM226.242 55.1705C227.7 56.3729 228.66 58.1488 228.789 60.1651V60.5351V60.1651C228.66 58.1488 227.7 56.3729 226.242 55.1705Z" fill="#73325A"/>
<path d="M286.887 60.7196H286.868C286.665 60.7011 286.518 60.5346 286.518 60.3311C286.757 56.206 290.153 52.9688 294.269 52.9688C294.472 52.9688 294.638 53.1352 294.638 53.3387C294.638 53.5422 294.472 53.7087 294.269 53.7087C290.559 53.7087 287.477 56.6314 287.256 60.3866C287.256 60.5531 287.09 60.7196 286.887 60.7196Z" fill="#73325A"/>
<path d="M286.886 61.0904C286.868 61.0904 286.849 61.0904 286.849 61.0904C286.443 61.0719 286.13 60.7204 286.148 60.3135C286.406 55.9848 289.968 52.5996 294.268 52.5996C294.674 52.5996 295.007 52.9326 295.007 53.3395C295.007 53.7465 294.674 54.0795 294.268 54.0795C290.743 54.0795 287.827 56.8543 287.624 60.4059C287.606 60.7759 287.292 61.0904 286.886 61.0904ZM286.886 60.3505V60.7204V60.3505Z" fill="#73325A"/>
</svg>
